<svg width="455" height="288" viewBox="0 0 455 288" fill="none" xmlns="http://www.w3.org/2000/svg">
<path d="M286.1 35.5H164.543V253.941H286.1V35.5Z" fill="#DEDEDE"/>
<path d="M172.287 144.713C172.287 100.398 193.036 60.9295 225.347 35.4925C201.717 16.8901 171.901 5.79102 139.494 5.79102C62.775 5.79102 0.582031 67.9882 0.582031 144.713C0.582031 221.436 62.775 283.635 139.494 283.635C171.901 283.635 201.717 272.536 225.347 253.933C193.036 228.495 172.287 189.028 172.287 144.713Z" fill="white"/>
<path d="M450.097 144.713C450.097 221.436 387.904 283.635 311.185 283.635C278.778 283.635 248.962 272.536 225.332 253.933C257.644 228.495 278.392 189.028 278.392 144.713C278.392 100.398 257.644 60.9295 225.332 35.4925C248.962 16.8901 278.778 5.79102 311.185 5.79102C387.904 5.79102 450.097 67.9882 450.097 144.713ZM436.843 230.797V226.325H438.646V225.414H434.054V226.325H435.858V230.797H436.843ZM445.759 230.797V225.405H444.351L442.732 229.114L441.112 225.405H439.704V230.797H440.698V226.73L442.216 230.236H443.247L444.766 226.721V230.797H445.759Z" fill="#DEDEDE"/>
</svg>
