<svg width="512" height="341" viewBox="0 0 512 341" fill="none" xmlns="http://www.w3.org/2000/svg">
<path d="M201.262 81.1387H310.783V259.845H201.262V81.1387Z" fill="white"/>
<path d="M212.543 170.508C212.529 153.3 216.434 136.314 223.961 120.837C231.489 105.359 242.442 91.7949 255.991 81.1705C239.209 67.9948 219.056 59.8015 197.834 57.5272C176.611 55.2529 155.177 58.9893 135.98 68.3094C116.782 77.6295 100.597 92.1572 89.2737 110.232C77.9502 128.307 71.9453 149.2 71.9453 170.523C71.9453 191.846 77.9502 212.739 89.2737 230.814C100.597 248.889 116.782 263.417 135.98 272.737C155.177 282.057 176.611 285.794 197.834 283.519C219.056 281.245 239.209 273.052 255.991 259.876C242.437 249.248 231.482 235.679 223.954 220.195C216.427 204.712 212.524 187.72 212.543 170.507V170.508Z" fill="white"/>
<path d="M440.055 170.508C440.055 191.833 434.048 212.727 422.723 230.803C411.397 248.878 395.209 263.406 376.01 272.724C356.81 282.043 335.373 285.777 314.15 283.499C292.926 281.222 272.773 273.024 255.992 259.844C269.536 249.211 280.486 235.643 288.015 220.164C295.545 204.686 299.457 187.701 299.457 170.492C299.457 153.282 295.545 136.298 288.015 120.819C280.486 105.341 269.536 91.7729 255.992 81.139C272.773 67.959 292.927 59.7617 314.15 57.4841C335.374 55.2065 356.81 58.9405 376.01 68.2593C395.21 77.5781 411.398 92.1056 422.723 110.181C434.049 128.257 440.055 149.151 440.055 170.476V170.508Z" fill="#CECECE"/>
</svg>
