<svg width="95" height="41" viewBox="0 0 95 41" fill="none" xmlns="http://www.w3.org/2000/svg">
<g filter="url(#filter0_d_470_1334)">
<path d="M35.6509 26.717H36.1626V26.2942H36.895V26.717H39.2368V26.4358H43.2632L43.3364 26.717H44.8735V26.8586H45.5317V27.1409H44.8735V27.2815H43.2632V27.634H39.2368V27.3518H36.895V27.7747H36.1626V27.3518H35.6509V28.1272H27.8188C31.9665 30.4535 40.6853 35.3318 42.3843 36.2346C44.082 37.1367 44.3607 36.7177 44.3608 36.4592L50.729 26.1536H71.5171L56.5854 26.8586L51.4614 26.9993L48.314 32.2161L46.2642 35.5999C45.8006 36.3048 44.7708 37.884 44.3608 38.5608C43.951 39.2374 42.7269 38.9842 42.1655 38.7727L30.0142 32.0051C28.9406 31.3707 26.6624 30.0025 26.1353 29.6077C25.6082 29.2129 25.7691 28.2211 25.9155 27.7747L27.0132 26.1536L35.6509 25.8713V26.717ZM34.7017 32.8733C34.4739 32.7484 34.1713 32.8221 34.0259 33.0374C33.8805 33.2526 33.9467 33.5285 34.1743 33.6536L36.3696 34.8577C36.5974 34.9823 36.9 34.9088 37.0454 34.6936C37.1906 34.4783 37.1237 34.2023 36.896 34.0774L34.7017 32.8733Z" fill="url(#paint0_linear_470_1334)"/>
</g>
<g filter="url(#filter1_d_470_1334)">
<path d="M41.4614 2.96802C41.8099 2.24198 42.7613 0.835623 43.7769 1.01587C44.7923 1.19616 46.0416 1.99188 46.5396 2.36743L49.9751 4.54517L56.6206 8.37622L59.3091 9.87817L60.6538 10.6292C61.1017 10.9046 61.5497 11.4553 61.4751 12.6565C61.4004 13.8582 60.7777 14.3089 60.4292 14.384H55.3511L54.7544 14.1584H53.2603C53.1109 14.2336 52.7676 14.384 52.5884 14.384C52.4091 14.3839 52.1152 14.084 51.9907 13.9338V13.3323H42.2085V13.0325H51.9165L51.9907 12.4319C52.0903 12.2316 52.3495 11.8608 52.5884 11.9807C52.8272 12.1008 53.036 12.2313 53.1108 12.2815H54.7544L55.3511 11.9807H59.6079C59.7573 11.9807 60.0117 11.9354 59.8325 11.7551C59.6533 11.5749 58.4627 10.8292 57.8901 10.4788L50.4976 6.27271L44.4487 2.66821C44.15 2.46793 43.4779 2.18754 43.1792 2.66821C42.8804 3.14905 42.159 4.32028 41.8354 4.84595L36.5327 14.1584C36.5327 14.2335 36.354 14.384 35.6372 14.384H16.6694L35.4878 13.2581L41.4614 2.96802ZM52.687 13.4827C52.5626 13.4827 52.4616 13.5838 52.4614 13.7083C52.4614 13.8328 52.5624 13.9338 52.687 13.9338H53.2886C53.4132 13.9338 53.5142 13.8328 53.5142 13.7083C53.514 13.5838 53.413 13.4827 53.2886 13.4827H52.687ZM56.2964 13.4827C56.1719 13.4827 56.071 13.5838 56.0708 13.7083C56.0708 13.8328 56.1718 13.9338 56.2964 13.9338H60.3569C60.4814 13.9337 60.5825 13.8328 60.5825 13.7083C60.5823 13.5839 60.4813 13.4828 60.3569 13.4827H56.2964Z" fill="url(#paint1_linear_470_1334)"/>
</g>
<g filter="url(#filter2_d_470_1334)">
<path d="M19.6158 24.713V17.7299H23.1872C24.105 17.7299 24.79 17.8995 25.2422 18.2387C25.6944 18.5712 25.9206 19.0101 25.9206 19.5555C25.9206 19.9146 25.8241 20.2305 25.6313 20.5032C25.445 20.7692 25.179 20.982 24.8332 21.1416C24.494 21.2946 24.0883 21.3711 23.6161 21.3711L23.8156 20.8922C24.3078 20.8922 24.7368 20.9687 25.1025 21.1217C25.4683 21.268 25.751 21.4841 25.9505 21.7701C26.1567 22.0494 26.2597 22.392 26.2597 22.7976C26.2597 23.4028 26.0137 23.875 25.5215 24.2142C25.036 24.5467 24.3244 24.713 23.3867 24.713H19.6158ZM21.5711 23.2865H23.2271C23.5663 23.2865 23.8223 23.2299 23.9952 23.1169C24.1748 22.9972 24.2646 22.8176 24.2646 22.5782C24.2646 22.3387 24.1748 22.1625 23.9952 22.0494C23.8223 21.9297 23.5663 21.8699 23.2271 21.8699H21.4314V20.5032H22.9278C23.2603 20.5032 23.5097 20.4467 23.676 20.3336C23.8423 20.2205 23.9254 20.0509 23.9254 19.8248C23.9254 19.5987 23.8423 19.4324 23.676 19.326C23.5097 19.213 23.2603 19.1564 22.9278 19.1564H21.5711V23.2865ZM27.2828 24.713V17.7299H29.2581V24.713H27.2828ZM30.6633 24.713V17.7299H32.6386V23.1468H35.9705V24.713H30.6633ZM38.5678 20.4333H41.8099V21.9098H38.5678V20.4333ZM38.7074 23.1867H42.3586V24.713H36.7521V17.7299H42.2289V19.2562H38.7074V23.1867Z" fill="white"/>
<path d="M1.69831 24.713V17.7299H3.32439L6.2174 22.4784H5.35947L8.17268 17.7299H9.79875L9.8187 24.713H8.00309L7.98313 20.4932H8.29239L6.18747 24.0247H5.30959L3.14482 20.4932H3.5239V24.713H1.69831Z" fill="white"/>
<path d="M17.9536 21.2533L18.0573 20.3568C18.0742 20.2107 17.9656 20.0789 17.8147 20.0626L17.3016 20.0069C17.2628 19.7504 17.1878 19.5036 17.0815 19.2721L17.4859 18.9593C17.6045 18.8676 17.6239 18.7 17.5292 18.5851L16.948 17.8802C16.8533 17.7653 16.6803 17.7466 16.5616 17.8383L16.1572 18.1511C15.9477 17.9994 15.7158 17.874 15.466 17.7806L15.5235 17.2836C15.5404 17.1375 15.4241 16.9053 15.2732 16.8889L14.7805 16.8873L14.3498 16.8873C14.1989 16.8709 14.0684 16.9778 14.0515 17.1239L13.994 17.6209C13.7292 17.6584 13.4743 17.731 13.2353 17.8341L12.9124 17.4424C12.8177 17.3275 12.6447 17.3087 12.526 17.4005L11.7982 17.9634C11.6795 18.0551 11.6602 18.2227 11.7549 18.3376L12.0778 18.7292C11.9212 18.9322 11.7918 19.1568 11.6953 19.3986L11.1822 19.343C11.0313 19.3266 10.8953 19.4318 10.8784 19.5779L10.7747 20.4744C10.7578 20.6205 10.8664 20.7522 11.0173 20.7686L11.5304 20.8243C11.5692 21.0808 11.6442 21.3276 11.7505 21.5591L11.3461 21.8718C11.2275 21.9636 11.2081 22.1311 11.3028 22.246L11.884 22.9509C11.9788 23.0659 12.1518 23.0846 12.2704 22.9929L12.6748 22.6801C12.8844 22.8318 13.1163 22.9572 13.366 23.0506L13.3085 23.5476C13.2916 23.6937 13.4002 23.8254 13.5511 23.8418L14.0515 23.9422H14.4767C14.6276 23.9586 14.7636 23.8534 14.7805 23.7073L14.838 23.2103C15.1028 23.1727 15.3577 23.1001 15.5967 22.9971L15.9196 23.3888C16.0143 23.5037 16.1873 23.5225 16.306 23.4307L16.7542 23.2103L17.0338 22.8679C17.1525 22.7761 17.1718 22.6086 17.0771 22.4937L16.7542 22.102C16.9108 21.8991 17.0402 21.6744 17.1367 21.4326L17.6498 21.4883C17.8007 21.5046 17.9367 21.3994 17.9536 21.2533ZM14.3498 21.8038C13.4841 21.7637 12.8523 20.9974 13.0035 20.1709C13.1285 19.4877 13.7667 18.9942 14.4822 19.0273C15.3479 19.0674 15.9797 19.8337 15.8285 20.6602C15.7035 21.3434 15.0653 21.8369 14.3498 21.8038Z" fill="white"/>
</g>
<g filter="url(#filter3_d_470_1334)">
<path d="M47.6983 24.8287V17.8456H51.0003C51.7718 17.8456 52.4502 17.9886 53.0354 18.2746C53.6207 18.5605 54.0762 18.9629 54.4021 19.4817C54.7347 20.0004 54.9009 20.6189 54.9009 21.3372C54.9009 22.0488 54.7347 22.6673 54.4021 23.1927C54.0762 23.7114 53.6207 24.1138 53.0354 24.3998C52.4502 24.6857 51.7718 24.8287 51.0003 24.8287H47.6983ZM49.6735 23.2525H50.9205C51.3196 23.2525 51.6654 23.1794 51.958 23.0331C52.2573 22.8801 52.4901 22.6606 52.6563 22.3747C52.8226 22.082 52.9057 21.7362 52.9057 21.3372C52.9057 20.9315 52.8226 20.5857 52.6563 20.2997C52.4901 20.0137 52.2573 19.7976 51.958 19.6512C51.6654 19.4983 51.3196 19.4218 50.9205 19.4218H49.6735V23.2525ZM55.9401 24.8287V17.8456H57.9154V24.8287H55.9401ZM61.7747 24.9684C61.2028 24.9684 60.6508 24.8986 60.1187 24.7589C59.5933 24.6126 59.1643 24.4264 58.8318 24.2003L59.4802 22.7438C59.7928 22.9433 60.152 23.1096 60.5576 23.2426C60.97 23.3689 61.379 23.4321 61.7847 23.4321C62.0574 23.4321 62.2768 23.4088 62.4431 23.3623C62.6094 23.3091 62.7291 23.2426 62.8022 23.1628C62.882 23.0763 62.9219 22.9765 62.9219 22.8635C62.9219 22.7039 62.8488 22.5775 62.7025 22.4844C62.5562 22.3913 62.3666 22.3148 62.1338 22.255C61.9011 22.1951 61.6417 22.1352 61.3557 22.0754C61.0764 22.0155 60.7937 21.939 60.5078 21.8459C60.2284 21.7528 59.9724 21.6331 59.7396 21.4868C59.5068 21.3338 59.3173 21.1377 59.171 20.8982C59.0247 20.6522 58.9515 20.3429 58.9515 19.9705C58.9515 19.5515 59.0646 19.1724 59.2907 18.8332C59.5235 18.494 59.8693 18.2214 60.3282 18.0152C60.7871 17.809 61.359 17.7059 62.0441 17.7059C62.5029 17.7059 62.9519 17.7591 63.3908 17.8656C63.8364 17.9653 64.2321 18.115 64.5779 18.3145L63.9694 19.7809C63.6369 19.6014 63.3077 19.4683 62.9818 19.3819C62.6559 19.2888 62.34 19.2422 62.0341 19.2422C61.7614 19.2422 61.5419 19.2722 61.3757 19.332C61.2094 19.3852 61.0897 19.4584 61.0165 19.5515C60.9434 19.6446 60.9068 19.751 60.9068 19.8707C60.9068 20.0237 60.9766 20.1467 61.1163 20.2398C61.2626 20.3263 61.4521 20.3994 61.6849 20.4593C61.9243 20.5125 62.1837 20.569 62.463 20.6289C62.749 20.6887 63.0317 20.7652 63.311 20.8583C63.597 20.9448 63.8563 21.0645 64.0891 21.2175C64.3219 21.3638 64.5081 21.56 64.6478 21.806C64.7941 22.0455 64.8672 22.3481 64.8672 22.7138C64.8672 23.1195 64.7508 23.4953 64.5181 23.8411C64.292 24.1803 63.9495 24.453 63.4906 24.6591C63.0383 24.8653 62.4664 24.9684 61.7747 24.9684ZM65.7796 24.8287V17.8456H68.9719C69.6104 17.8456 70.1591 17.9487 70.618 18.1549C71.0835 18.361 71.4426 18.6603 71.6954 19.0527C71.9481 19.4384 72.0744 19.8973 72.0744 20.4294C72.0744 20.9548 71.9481 21.4103 71.6954 21.7961C71.4426 22.1818 71.0835 22.4811 70.618 22.6939C70.1591 22.9001 69.6104 23.0031 68.9719 23.0031H66.877L67.7549 22.1452V24.8287H65.7796ZM67.7549 22.3547L66.877 21.4469H68.8522C69.2646 21.4469 69.5705 21.3571 69.77 21.1776C69.9762 20.998 70.0793 20.7486 70.0793 20.4294C70.0793 20.1035 69.9762 19.8508 69.77 19.6712C69.5705 19.4916 69.2646 19.4018 68.8522 19.4018H66.877L67.7549 18.494V22.3547ZM73.0375 24.8287V17.8456H75.0127V23.2625H78.3447V24.8287H73.0375ZM78.3565 24.8287L81.4391 17.8456H83.3844L86.4769 24.8287H84.4219L82.0077 18.8133H82.7858L80.3717 24.8287H78.3565ZM80.0425 23.472L80.5512 22.0155H83.963L84.4718 23.472H80.0425ZM88.3642 24.8287V21.8759L88.8231 23.063L85.7007 17.8456H87.7856L90.0402 21.6265H88.8331L91.0976 17.8456H93.013L89.9005 23.063L90.3395 21.8759V24.8287H88.3642Z" fill="white"/>
</g>
<defs>
<filter id="filter0_d_470_1334" x="24.7288" y="25.5235" width="47.8319" height="15.2159" filterUnits="userSpaceOnUse" color-interpolation-filters="sRGB">
<feFlood flood-opacity="0" result="BackgroundImageFix"/>
<feColorMatrix in="SourceAlpha" type="matrix" values="0 0 0 0 0 0 0 0 0 0 0 0 0 0 0 0 0 0 127 0" result="hardAlpha"/>
<feOffset dy="0.695741"/>
<feGaussianBlur stdDeviation="0.521806"/>
<feComposite in2="hardAlpha" operator="out"/>
<feColorMatrix type="matrix" values="0 0 0 0 0 0 0 0 0 0 0 0 0 0 0 0 0 0 0.25 0"/>
<feBlend mode="normal" in2="BackgroundImageFix" result="effect1_dropShadow_470_1334"/>
<feBlend mode="normal" in="SourceGraphic" in2="effect1_dropShadow_470_1334" result="shape"/>
</filter>
<filter id="filter1_d_470_1334" x="15.6258" y="0.652251" width="46.9012" height="15.4711" filterUnits="userSpaceOnUse" color-interpolation-filters="sRGB">
<feFlood flood-opacity="0" result="BackgroundImageFix"/>
<feColorMatrix in="SourceAlpha" type="matrix" values="0 0 0 0 0 0 0 0 0 0 0 0 0 0 0 0 0 0 127 0" result="hardAlpha"/>
<feOffset dy="0.695741"/>
<feGaussianBlur stdDeviation="0.521806"/>
<feComposite in2="hardAlpha" operator="out"/>
<feColorMatrix type="matrix" values="0 0 0 0 0 0 0 0 0 0 0 0 0 0 0 0 0 0 0.25 0"/>
<feBlend mode="normal" in2="BackgroundImageFix" result="effect1_dropShadow_470_1334"/>
<feBlend mode="normal" in="SourceGraphic" in2="effect1_dropShadow_470_1334" result="shape"/>
</filter>
<filter id="filter2_d_470_1334" x="0.65463" y="16.5377" width="42.7474" height="9.91462" filterUnits="userSpaceOnUse" color-interpolation-filters="sRGB">
<feFlood flood-opacity="0" result="BackgroundImageFix"/>
<feColorMatrix in="SourceAlpha" type="matrix" values="0 0 0 0 0 0 0 0 0 0 0 0 0 0 0 0 0 0 127 0" result="hardAlpha"/>
<feOffset dy="0.695741"/>
<feGaussianBlur stdDeviation="0.521806"/>
<feComposite in2="hardAlpha" operator="out"/>
<feColorMatrix type="matrix" values="0 0 0 0 0 0 0 0 0 0 0 0 0 0 0 0 0 0 0.25 0"/>
<feBlend mode="normal" in2="BackgroundImageFix" result="effect1_dropShadow_470_1334"/>
<feBlend mode="normal" in="SourceGraphic" in2="effect1_dropShadow_470_1334" result="shape"/>
</filter>
<filter id="filter3_d_470_1334" x="46.6546" y="17.3581" width="47.4022" height="9.34967" filterUnits="userSpaceOnUse" color-interpolation-filters="sRGB">
<feFlood flood-opacity="0" result="BackgroundImageFix"/>
<feColorMatrix in="SourceAlpha" type="matrix" values="0 0 0 0 0 0 0 0 0 0 0 0 0 0 0 0 0 0 127 0" result="hardAlpha"/>
<feOffset dy="0.695741"/>
<feGaussianBlur stdDeviation="0.521806"/>
<feComposite in2="hardAlpha" operator="out"/>
<feColorMatrix type="matrix" values="0 0 0 0 0 0 0 0 0 0 0 0 0 0 0 0 0 0 0.25 0"/>
<feBlend mode="normal" in2="BackgroundImageFix" result="effect1_dropShadow_470_1334"/>
<feBlend mode="normal" in="SourceGraphic" in2="effect1_dropShadow_470_1334" result="shape"/>
</filter>
<linearGradient id="paint0_linear_470_1334" x1="25.772" y1="32.4357" x2="71.5176" y2="32.4357" gradientUnits="userSpaceOnUse">
<stop stop-color="#F60000"/>
<stop offset="1" stop-color="#C70101"/>
</linearGradient>
<linearGradient id="paint1_linear_470_1334" x1="61.4831" y1="7.69215" x2="16.6694" y2="7.69215" gradientUnits="userSpaceOnUse">
<stop stop-color="#F60000"/>
<stop offset="1" stop-color="#AF0000"/>
</linearGradient>
</defs>
</svg>
