<svg width="48" height="16" viewBox="0 0 48 16" fill="none" xmlns="http://www.w3.org/2000/svg">
<path d="M31.2644 0.23996C27.8563 0.23996 24.8106 2.00299 24.8106 5.25957C24.8106 8.99467 30.2121 9.25263 30.2121 11.1293C30.2121 11.9195 29.305 12.6267 27.7549 12.6267C25.5558 12.6267 23.9121 11.6385 23.9121 11.6385L23.2086 14.9253C23.2086 14.9253 25.1022 15.76 27.6161 15.76C31.3422 15.76 34.2746 13.9107 34.2746 10.598C34.2746 6.651 28.8504 6.40072 28.8504 4.65927C28.8504 4.04027 29.5952 3.36229 31.1404 3.36229C32.8841 3.36229 34.3063 4.08102 34.3063 4.08102L34.9948 0.906908C34.9948 0.906908 33.4467 0.23996 31.2639 0.23996H31.2644ZM0.0826426 0.479697L0 0.958691C0 0.958691 1.43375 1.22048 2.72528 1.74311C4.38823 2.34197 4.50642 2.69103 4.78654 3.77368L7.83807 15.5126H11.9289L18.2309 0.479697H14.1497L10.1002 10.7006L8.4478 2.03655C8.29645 1.045 7.52864 0.479217 6.5893 0.479217H0.0831231L0.0826426 0.479697ZM19.8722 0.479697L16.6707 15.5126H20.5626L23.7525 0.479697H19.8722ZM41.5783 0.479697C40.64 0.479697 40.1427 0.981226 39.778 1.85722L34.0761 15.5126H38.1573L38.9468 13.2366H43.9188L44.3988 15.5126H48L44.8586 0.479697H41.5783ZM42.1093 4.54132L43.3191 10.1823H40.0783L42.1098 4.54132H42.1093Z" fill="#F7F7F7"/>
</svg>
