<svg width="18" height="18" viewBox="0 0 18 18" fill="none" xmlns="http://www.w3.org/2000/svg">
<g clip-path="url(#clip0_195_263)">
<mask id="mask0_195_263" style="mask-type:luminance" maskUnits="userSpaceOnUse" x="0" y="0" width="18" height="18">
<path d="M18 0H0V18H18V0Z" fill="white"/>
</mask>
<g mask="url(#mask0_195_263)">
<path d="M15.7885 14.6782C8.13228 18.3687 3.38079 15.281 0.339187 13.4056C0.150971 13.2874 -0.168923 13.4332 0.108632 13.7561C1.12193 15.0006 4.44274 18 8.7774 18C13.115 18 15.6955 15.6028 16.0183 15.1846C16.3389 14.77 16.1125 14.5413 15.7885 14.6782ZM17.9387 13.4755C17.7331 13.2043 16.6885 13.1538 16.0311 13.2356C15.3727 13.315 14.3844 13.7226 14.4703 13.9673C14.5144 14.059 14.6044 14.0179 15.0567 13.9767C15.5102 13.9308 16.7808 13.7684 17.0456 14.119C17.3116 14.4719 16.6403 16.1533 16.5178 16.4245C16.3993 16.6956 16.563 16.7656 16.7855 16.585C17.0049 16.4044 17.4022 15.9369 17.6687 15.2752C17.9335 14.61 18.095 13.682 17.9387 13.4755Z" fill="#01A4E0"/>
<path fill-rule="evenodd" clip-rule="evenodd" d="M10.626 7.71012C10.626 8.65092 10.6495 9.43548 10.1799 10.271C9.80097 10.9504 9.20061 11.3681 8.52987 11.3681C7.61421 11.3681 7.08099 10.6616 7.08099 9.61896C7.08099 7.5606 8.90205 7.18704 10.626 7.18704V7.71012ZM13.0308 13.5962C12.8731 13.7389 12.645 13.7491 12.4674 13.654C11.6758 12.9883 11.5349 12.6792 11.0989 12.044C9.79095 13.3958 8.86521 13.8 7.16817 13.8C5.16256 13.8 3.59961 12.5467 3.59961 10.0367C3.59961 8.07696 4.64945 6.74208 6.14181 6.09C7.43649 5.51252 9.24423 5.41064 10.626 5.25106V4.93856C10.626 4.3645 10.6696 3.68521 10.3376 3.18937C10.0458 2.74439 9.48909 2.561 8.99937 2.561C8.09049 2.561 7.27887 3.03308 7.08099 4.01126C7.04067 4.22868 6.88305 4.44268 6.66843 4.45285L4.35421 4.20157C4.15975 4.15733 3.94511 3.99775 3.99875 3.69539C4.53203 0.855978 7.06413 0 9.33135 0C10.4918 0 12.0078 0.312509 12.9234 1.20242C14.0838 2.29946 13.9731 3.76332 13.9731 5.35631V9.11964C13.9731 10.2507 14.436 10.7465 14.872 11.3579C15.0262 11.5753 15.0598 11.8369 14.8653 11.9998C14.379 12.4108 13.5136 13.175 13.0374 13.6031L13.0308 13.5962Z" fill="#2F3E47"/>
</g>
</g>
<defs>
<clipPath id="clip0_195_263">
<rect width="18" height="18" fill="white"/>
</clipPath>
</defs>
</svg>
