<svg width="36" height="35" viewBox="0 0 36 35" fill="none" xmlns="http://www.w3.org/2000/svg">
<g clip-path="url(#clip0_609_2364)">
<path d="M31.8086 15.7227H4.19141C2.37922 15.7227 0.910156 17.1917 0.910156 19.0039V31.3086C0.910156 33.1208 2.37922 34.5898 4.19141 34.5898H31.8086C33.6208 34.5898 35.0898 33.1208 35.0898 31.3086V19.0039C35.0898 17.1917 33.6208 15.7227 31.8086 15.7227Z" fill="#BB0300"/>
<path d="M32.6289 30.4883V19.8242C32.6289 18.9181 31.8944 18.1836 30.9883 18.1836H5.01172C4.10563 18.1836 3.37109 18.9181 3.37109 19.8242V30.4883C3.37109 31.3944 4.10563 32.1289 5.01172 32.1289H30.9883C31.8944 32.1289 32.6289 31.3944 32.6289 30.4883Z" fill="#ECEFF1"/>
<path d="M31.912 3.02162L30.3652 4.56846C30.288 4.6444 30.2266 4.73487 30.1845 4.83465C30.1425 4.93443 30.1206 5.04156 30.1201 5.14984C30.1197 5.25813 30.1407 5.36544 30.1819 5.46557C30.2231 5.5657 30.2838 5.65668 30.3603 5.73326C30.4369 5.80984 30.5278 5.8705 30.628 5.91175C30.7281 5.953 30.8354 5.97402 30.9437 5.97359C31.052 5.97316 31.1591 5.9513 31.2589 5.90926C31.3587 5.86722 31.4492 5.80584 31.5251 5.72866L33.072 4.18182C33.2237 4.02758 33.3084 3.8196 33.3076 3.6032C33.3067 3.3868 33.2204 3.1795 33.0674 3.02647C32.9144 2.87343 32.7071 2.78705 32.4907 2.78614C32.2743 2.78523 32.0663 2.86987 31.912 3.02162Z" fill="#BB0300"/>
<path d="M31.912 12.8377L30.3652 11.2909C30.288 11.2149 30.2266 11.1245 30.1845 11.0247C30.1425 10.9249 30.1206 10.8178 30.1201 10.7095C30.1197 10.6012 30.1407 10.4939 30.1819 10.3938C30.2231 10.2936 30.2838 10.2027 30.3603 10.1261C30.4369 10.0495 30.5278 9.98883 30.628 9.94758C30.7281 9.90634 30.8354 9.88532 30.9437 9.88575C31.052 9.88618 31.1591 9.90804 31.2589 9.95008C31.3587 9.99212 31.4492 10.0535 31.5251 10.1307L33.072 11.6775C33.1492 11.7535 33.2106 11.8439 33.2526 11.9437C33.2947 12.0435 33.3166 12.1506 33.317 12.2589C33.3175 12.3672 33.2965 12.4745 33.2553 12.5746C33.214 12.6748 33.1534 12.7657 33.0768 12.8423C33.0003 12.9189 32.9093 12.9796 32.8092 13.0208C32.7091 13.0621 32.6018 13.0831 32.4935 13.0826C32.3852 13.0822 32.2781 13.0604 32.1783 13.0183C32.0785 12.9763 31.988 12.9149 31.912 12.8377Z" fill="#BB0300"/>
<path d="M4.08761 3.0213L5.63445 4.56814C5.78624 4.72238 5.87093 4.93036 5.87007 5.14676C5.86922 5.36316 5.78288 5.57046 5.62988 5.7235C5.47688 5.87653 5.2696 5.96291 5.0532 5.96382C4.8368 5.96473 4.62881 5.88009 4.47453 5.72834L2.92769 4.1815C2.85049 4.10556 2.78909 4.0151 2.74703 3.91531C2.70497 3.81553 2.68308 3.7084 2.68262 3.60012C2.68217 3.49183 2.70316 3.38453 2.74439 3.28439C2.78561 3.18426 2.84625 3.09328 2.92281 3.0167C2.99937 2.94012 3.09034 2.87946 3.19046 2.83821C3.29059 2.79696 3.39789 2.77595 3.50617 2.77637C3.61446 2.7768 3.72159 2.79867 3.82138 2.8407C3.92118 2.88274 4.01166 2.94412 4.08761 3.0213Z" fill="#BB0300"/>
<path d="M4.08761 12.8377L5.63445 11.2909C5.71165 11.2149 5.77305 11.1245 5.81511 11.0247C5.85718 10.9249 5.87906 10.8178 5.87952 10.7095C5.87997 10.6012 5.85898 10.4939 5.81776 10.3938C5.77653 10.2936 5.71589 10.2027 5.63933 10.1261C5.56277 10.0495 5.4718 9.98883 5.37168 9.94758C5.27156 9.90634 5.16426 9.88532 5.05597 9.88575C4.94768 9.88618 4.84055 9.90804 4.74076 9.95008C4.64097 9.99212 4.55048 10.0535 4.47453 10.1307L2.92769 11.6775C2.85049 11.7535 2.78909 11.8439 2.74703 11.9437C2.70497 12.0435 2.68308 12.1506 2.68262 12.2589C2.68217 12.3672 2.70316 12.4745 2.74439 12.5746C2.78561 12.6748 2.84625 12.7657 2.92281 12.8423C2.99937 12.9189 3.09034 12.9796 3.19046 13.0208C3.29059 13.0621 3.39789 13.0831 3.50617 13.0826C3.61446 13.0822 3.72159 13.0604 3.82138 13.0183C3.92118 12.9763 4.01166 12.9149 4.08761 12.8377Z" fill="#BB0300"/>
<path d="M19.3972 1.99902L21.4723 5.37187C21.6993 5.74083 22.063 6.00504 22.484 6.10687L26.3327 7.03656C26.6051 7.10242 26.8561 7.23696 27.0617 7.42736C27.2674 7.61775 27.4208 7.85766 27.5074 8.12419C27.594 8.39073 27.6109 8.675 27.5565 8.94992C27.5021 9.22484 27.3781 9.48123 27.1965 9.69464L24.6291 12.7109C24.3484 13.0409 24.2095 13.4684 24.2428 13.9004L24.5468 17.8483C24.5684 18.1277 24.518 18.408 24.4004 18.6624C24.2829 18.9168 24.1021 19.1368 23.8754 19.3016C23.6487 19.4663 23.3836 19.5702 23.1053 19.6034C22.827 19.6366 22.5449 19.5979 22.2858 19.4911L18.625 17.9817C18.2245 17.8166 17.7749 17.8166 17.3743 17.9817L13.7135 19.4911C13.4544 19.5979 13.1723 19.6366 12.894 19.6034C12.6157 19.5702 12.3506 19.4663 12.1239 19.3016C11.8972 19.1368 11.7164 18.9168 11.5989 18.6624C11.4814 18.408 11.4309 18.1277 11.4525 17.8483L11.7565 13.9004C11.7898 13.4684 11.6509 13.0409 11.3702 12.7109L8.80341 9.69574C8.62175 9.48232 8.4978 9.22593 8.44336 8.95102C8.38892 8.6761 8.40581 8.39182 8.49243 8.12528C8.57904 7.85875 8.73249 7.61885 8.93814 7.42845C9.14379 7.23805 9.39479 7.10351 9.6672 7.03765L13.5158 6.10796C13.9369 6.00614 14.3006 5.74192 14.5275 5.37296L16.6021 1.99902C16.7489 1.76026 16.9545 1.5631 17.1991 1.42634C17.4438 1.28958 17.7194 1.21777 17.9997 1.21777C18.2799 1.21777 18.5555 1.28958 18.8002 1.42634C19.0448 1.5631 19.2504 1.76026 19.3972 1.99902Z" fill="#BB0300"/>
<path d="M21.9047 5.83791L18 11.2137V1.21682C18.2806 1.21528 18.5569 1.28652 18.8018 1.42358C19.0466 1.56064 19.2518 1.75885 19.3973 1.99885L21.4727 5.37034C21.5849 5.55282 21.7316 5.71165 21.9047 5.83791Z" fill="#141414"/>
<path d="M17.9999 11.2139L12.1237 19.2994C11.8962 19.1358 11.715 18.916 11.5976 18.6616C11.4802 18.4072 11.4307 18.1267 11.4538 17.8475L11.7573 13.899C11.7732 13.6855 11.7472 13.4709 11.6807 13.2674L17.9999 11.2139Z" fill="#141414"/>
<path d="M27.1957 9.69629L24.6309 12.7096C24.4917 12.8735 24.3858 13.0629 24.3191 13.2674L18 11.2139L27.5047 8.12402C27.5937 8.39042 27.612 8.67536 27.5579 8.95097C27.5037 9.22657 27.3789 9.48339 27.1957 9.69629Z" fill="#141414"/>
<path d="M14.0951 5.83789L17.9998 11.2137L8.49512 8.12383C8.57992 7.85681 8.73261 7.61638 8.93824 7.4261C9.14387 7.23581 9.39538 7.10217 9.66816 7.03828L13.5154 6.10586C13.7242 6.0551 13.9212 5.96407 14.0951 5.83789Z" fill="#141414"/>
<path d="M23.8734 19.2994C23.648 19.4663 23.383 19.5718 23.1044 19.6053C22.8259 19.6389 22.5434 19.5994 22.2848 19.4908L18.6262 17.9814C18.4275 17.9 18.2147 17.8582 18 17.8584V11.2139L23.8734 19.2994Z" fill="#141414"/>
<path d="M16.4961 28.3008C16.6049 28.3008 16.7092 28.2576 16.7861 28.1806C16.863 28.1037 16.9062 27.9994 16.9062 27.8906V25.8398H19.0938V27.8906C19.0938 27.9994 19.137 28.1037 19.2139 28.1806C19.2908 28.2576 19.3951 28.3008 19.5039 28.3008C19.6127 28.3008 19.717 28.2576 19.7939 28.1806C19.8709 28.1037 19.9141 27.9994 19.9141 27.8906V23.9258C19.9141 23.4181 19.7124 22.9313 19.3534 22.5723C18.9945 22.2134 18.5076 22.0117 18 22.0117C17.4924 22.0117 17.0055 22.2134 16.6466 22.5723C16.2876 22.9313 16.0859 23.4181 16.0859 23.9258V27.8906C16.0859 27.9994 16.1291 28.1037 16.2061 28.1806C16.283 28.2576 16.3873 28.3008 16.4961 28.3008ZM16.9062 23.9258C16.9062 23.6357 17.0215 23.3575 17.2266 23.1524C17.4317 22.9473 17.7099 22.832 18 22.832C18.2901 22.832 18.5683 22.9473 18.7734 23.1524C18.9785 23.3575 19.0938 23.6357 19.0938 23.9258V25.0195H16.9062V23.9258Z" fill="#141414"/>
<path d="M27.2969 28.3008H28.6173C29.1372 28.3002 29.6356 28.0934 30.0032 27.7258C30.3708 27.3582 30.5775 26.8598 30.5781 26.34V23.9725C30.5775 23.4527 30.3708 22.9543 30.0032 22.5867C29.6356 22.2191 29.1372 22.0123 28.6173 22.0117H27.2969C27.0793 22.0117 26.8707 22.0981 26.7168 22.252C26.563 22.4058 26.4766 22.6145 26.4766 22.832V27.4805C26.4766 27.698 26.563 27.9067 26.7168 28.0605C26.8707 28.2144 27.0793 28.3008 27.2969 28.3008ZM27.2969 22.832H28.6173C28.9197 22.8324 29.2096 22.9527 29.4234 23.1665C29.6372 23.3803 29.7575 23.6702 29.7578 23.9725V26.34C29.7575 26.6423 29.6372 26.9322 29.4234 27.146C29.2096 27.3598 28.9197 27.4801 28.6173 27.4805H27.2969V22.832Z" fill="#141414"/>
<path d="M8.08078 22.0117H6.51562C6.29806 22.0117 6.08941 22.0981 5.93558 22.252C5.78174 22.4058 5.69531 22.6145 5.69531 22.832V27.4805C5.69531 27.698 5.78174 27.9067 5.93558 28.0605C6.08941 28.2144 6.29806 28.3008 6.51562 28.3008H8.08078C8.53576 28.3003 8.97196 28.1193 9.29368 27.7976C9.6154 27.4759 9.79637 27.0397 9.79688 26.5847V26.4622C9.79681 26.2136 9.7426 25.968 9.638 25.7425C9.53341 25.5169 9.38094 25.3169 9.19121 25.1562C9.38094 24.9956 9.53341 24.7956 9.638 24.57C9.7426 24.3445 9.79681 24.0989 9.79688 23.8503V23.7278C9.79637 23.2728 9.6154 22.8366 9.29368 22.5149C8.97196 22.1932 8.53576 22.0122 8.08078 22.0117ZM8.97656 26.5847C8.97627 26.8222 8.8818 27.0499 8.71387 27.2178C8.54595 27.3857 8.31827 27.4802 8.08078 27.4805H6.51562V25.5664H8.08078C8.31827 25.5667 8.54595 25.6612 8.71387 25.8291C8.8818 25.997 8.97627 26.2247 8.97656 26.4622V26.5847ZM8.97656 23.8503C8.97627 24.0878 8.8818 24.3155 8.71387 24.4834C8.54595 24.6513 8.31827 24.7458 8.08078 24.7461H6.51562V22.832H8.08078C8.31827 22.8323 8.54595 22.9268 8.71387 23.0947C8.8818 23.2626 8.97627 23.4903 8.97656 23.7278V23.8503Z" fill="#141414"/>
<path d="M21.6914 28.3008C21.8002 28.3008 21.9045 28.2576 21.9814 28.1806C22.0584 28.1037 22.1016 27.9994 22.1016 27.8906V23.82L24.0703 27.9341C24.1241 28.0452 24.214 28.1349 24.3253 28.1885C24.4365 28.2421 24.5626 28.2564 24.6831 28.2292C24.8035 28.2019 24.9112 28.1347 24.9886 28.0385C25.066 27.9423 25.1086 27.8227 25.1094 27.6992V22.4219C25.1094 22.3131 25.0662 22.2088 24.9892 22.1319C24.9123 22.0549 24.808 22.0117 24.6992 22.0117C24.5904 22.0117 24.4861 22.0549 24.4092 22.1319C24.3323 22.2088 24.2891 22.3131 24.2891 22.4219V26.4925L22.3203 22.3784C22.2665 22.2673 22.1766 22.1776 22.0654 22.124C21.9541 22.0704 21.828 22.0561 21.7075 22.0833C21.5871 22.1106 21.4794 22.1778 21.402 22.274C21.3246 22.3702 21.282 22.4898 21.2812 22.6133V27.8906C21.2812 27.9994 21.3245 28.1037 21.4014 28.1806C21.4783 28.2576 21.5826 28.3008 21.6914 28.3008Z" fill="#141414"/>
<path d="M10.8906 22.832V27.8906C10.8906 27.9994 10.9338 28.1037 11.0108 28.1806C11.0877 28.2576 11.192 28.3008 11.3008 28.3008C11.4096 28.3008 11.5139 28.2576 11.5908 28.1806C11.6677 28.1037 11.7109 27.9994 11.7109 27.8906V25.9591L14.1694 28.1941C14.2093 28.2304 14.2559 28.2584 14.3066 28.2766C14.3573 28.2948 14.411 28.3029 14.4648 28.3003C14.5186 28.2978 14.5714 28.2846 14.6201 28.2617C14.6689 28.2387 14.7126 28.2064 14.7488 28.1665C14.7851 28.1267 14.8131 28.0801 14.8313 28.0294C14.8495 27.9787 14.8576 27.9249 14.855 27.8711C14.8525 27.8173 14.8393 27.7645 14.8164 27.7158C14.7934 27.6671 14.7611 27.6233 14.7212 27.5871L12.4984 25.5664H13.2148C13.6862 25.5664 14.1383 25.3792 14.4716 25.0458C14.8049 24.7125 14.9922 24.2604 14.9922 23.7891C14.9922 23.3177 14.8049 22.8656 14.4716 22.5323C14.1383 22.199 13.6862 22.0117 13.2148 22.0117H11.7109C11.4934 22.0117 11.2847 22.0981 11.1309 22.252C10.9771 22.4058 10.8906 22.6145 10.8906 22.832ZM11.7109 22.832H13.2148C13.4687 22.832 13.7121 22.9329 13.8916 23.1123C14.071 23.2918 14.1719 23.5352 14.1719 23.7891C14.1719 24.0429 14.071 24.2863 13.8916 24.4658C13.7121 24.6453 13.4687 24.7461 13.2148 24.7461H11.7109V22.832Z" fill="#141414"/>
</g>
<defs>
<clipPath id="clip0_609_2364">
<rect width="35" height="35" fill="white" transform="translate(0.5)"/>
</clipPath>
</defs>
</svg>
