<svg width="42" height="29" viewBox="0 0 42 29" fill="none" xmlns="http://www.w3.org/2000/svg">
<path d="M8.57894 19.916C6.21371 19.916 4.29785 21.8344 4.29785 24.1988C4.29785 26.5633 6.21371 28.4816 8.57894 28.4816C10.9442 28.4816 12.86 26.5633 12.86 24.1988C12.86 21.8344 10.9442 19.916 8.57894 19.916Z" fill="#141414"/>
<path d="M30.5123 19.916C28.1461 19.916 26.2295 21.8344 26.2295 24.1988C26.2295 26.5633 28.1461 28.4816 30.5123 28.4816C32.8785 28.4816 34.7952 26.5633 34.7952 24.1988C34.7952 21.8344 32.8785 19.916 30.5123 19.916Z" fill="#141414"/>
<path d="M30.6035 5.33301C31.184 5.33296 31.7192 5.33256 32.1719 5.375C32.6684 5.42156 33.1845 5.5276 33.7002 5.80957C34.0965 6.02626 34.4574 6.31009 34.7695 6.64941C35.1722 7.08713 35.4271 7.58034 35.6289 8.07422C35.815 8.52972 35.9939 9.08732 36.1914 9.70215L36.3154 10.0879C36.6492 11.1266 36.7574 11.4439 36.8994 11.7178C37.0664 12.0398 37.2735 12.3316 37.5117 12.584C37.7119 12.7961 37.9559 12.982 38.7842 13.5859L38.9004 13.6709C39.4031 14.0362 39.8985 14.3961 40.2803 14.8867C40.6762 15.3956 40.9636 15.9918 41.126 16.6309C41.2815 17.2433 41.2812 17.8875 41.2803 18.5605V19.1035C41.2803 20.0367 41.2803 20.8628 41.2178 21.541C41.151 22.2653 40.9999 23.0149 40.5781 23.709C40.2892 24.1843 39.9192 24.5982 39.4873 24.9268C38.8488 25.4124 38.1543 25.5882 37.4883 25.665C37.1057 25.7092 36.6723 25.7232 36.2002 25.7295C36.3314 25.2411 36.4033 24.7279 36.4033 24.1982C36.4031 20.9473 33.768 18.3096 30.5146 18.3096C28.8256 18.3096 27.3041 19.0216 26.2305 20.1602V7.0918C26.2305 6.12071 26.9611 5.33301 27.8623 5.33301H30.6035Z" fill="#141414"/>
<path d="M7.0865 1.42455C8.47897 0.959635 10.1332 0.960182 12.6244 0.961005H17.6251C20.1163 0.960182 21.7705 0.959635 23.163 1.42455C24.5978 1.90359 25.8671 2.72594 26.8856 3.79421H26.2835C25.1408 3.79421 24.2144 4.64701 24.2144 5.699V25.0604C23.8754 25.223 23.5244 25.3655 23.163 25.4862C21.7705 25.9511 20.1163 25.9505 17.6251 25.9497H14.2049C14.3767 25.4407 14.4693 24.8996 14.4693 24.3386C14.4693 21.3456 11.8339 18.9174 8.58042 18.9174C5.95603 18.9174 3.73384 20.4973 2.97256 22.6792C2.18424 21.7405 1.57625 20.6416 1.19728 19.4379C0.995777 18.7979 0.885958 18.1026 0.826172 17.2915H8.2814C9.72249 17.2915 10.8907 16.0452 10.8907 14.5077C10.8907 13.9738 10.7498 13.475 10.5056 13.0513H11.4987C12.9398 13.0513 14.108 11.805 14.108 10.2675C14.108 9.62142 13.9017 9.02675 13.5556 8.55437H14.1289C15.57 8.55437 16.7382 7.308 16.7382 5.77054C16.7382 4.23307 15.57 2.98671 14.1289 2.98671H4.23948C5.0779 2.308 6.03801 1.77461 7.0865 1.42455Z" fill="#BB0300"/>
<path fill-rule="evenodd" clip-rule="evenodd" d="M3.72199 5.87656C3.72199 4.98956 4.44105 4.27051 5.32805 4.27051H13.7764C14.6634 4.27051 15.3824 4.98956 15.3824 5.87656C15.3824 6.76356 14.6634 7.48262 13.7764 7.48262H5.32805C4.44105 7.48262 3.72199 6.76356 3.72199 5.87656Z" fill="#141414"/>
<path fill-rule="evenodd" clip-rule="evenodd" d="M1.62461e-06 10.1772C-0.00124648 9.29018 0.716802 8.57112 1.60381 8.57112H11.0964C11.9834 8.57112 12.7035 9.29018 12.7048 10.1772C12.706 11.0642 11.988 11.7832 11.101 11.7832H1.60833C0.721322 11.7832 0.00124973 11.0642 1.62461e-06 10.1772Z" fill="#141414"/>
<path fill-rule="evenodd" clip-rule="evenodd" d="M3.85975 12.8718H7.91321C8.80021 12.8718 9.51927 13.5909 9.51927 14.4779C9.51927 15.3649 8.80021 16.0839 7.91321 16.0839H3.85975C2.97275 16.0839 2.25369 15.3649 2.25369 14.4779C2.25369 13.5909 2.97275 12.8718 3.85975 12.8718Z" fill="#141414"/>
</svg>
