<svg width="34" height="34" viewBox="0 0 34 34" fill="none" xmlns="http://www.w3.org/2000/svg">
<path d="M6.79323 9.99586C6.79323 8.22645 8.2269 6.79278 9.99632 6.79136H11.4541C12.2998 6.79136 13.1101 6.45561 13.7108 5.86061L14.7294 4.84061C15.9775 3.58545 18.0061 3.57978 19.2613 4.82786L19.2627 4.82928L19.2755 4.84061L20.2955 5.86061C20.8962 6.45703 21.7065 6.79136 22.5522 6.79136H24.0086C25.778 6.79136 27.2131 8.22503 27.2131 9.99586V11.4508C27.2131 12.2965 27.5474 13.1083 28.1438 13.7089L29.1638 14.7289C30.419 15.977 30.4261 18.0057 29.178 19.2609L29.1766 19.2623L29.1638 19.275L28.1438 20.295C27.5474 20.8943 27.2131 21.7046 27.2131 22.5504V24.0081C27.2131 25.7775 25.7794 27.2112 24.01 27.2112H24.0086H22.5494C21.7037 27.2112 20.8919 27.5469 20.2927 28.1434L19.2727 29.1619C18.026 30.4171 15.9987 30.4242 14.7436 29.1789C14.7422 29.1775 14.7407 29.1761 14.7393 29.1747L14.7266 29.1619L13.708 28.1434C13.1087 27.5469 12.297 27.2126 11.4512 27.2112H9.99632C8.2269 27.2112 6.79323 25.7775 6.79323 24.0081V22.5475C6.79323 21.7018 6.45748 20.8914 5.86107 20.2922L4.84248 19.2722C3.58732 18.0255 3.58023 15.9983 4.8269 14.7431C4.8269 14.7417 4.82832 14.7403 4.82973 14.7389L4.84248 14.7261L5.86107 13.7061C6.45748 13.1054 6.79323 12.2951 6.79323 11.4479V9.99586" stroke="black" stroke-width="2" stroke-linecap="round" stroke-linejoin="round"/>
<path d="M13.3613 20.643L20.643 13.3613" stroke="black" stroke-width="2" stroke-linecap="round" stroke-linejoin="round"/>
<path fill-rule="evenodd" clip-rule="evenodd" d="M19.1191 20.5414C19.1191 19.759 19.7534 19.1248 20.5358 19.1248H20.5486C21.331 19.1248 21.9652 19.759 21.9652 20.5414C21.9652 21.3238 21.331 21.9581 20.5486 21.9581H20.5358C19.7534 21.9581 19.1191 21.3238 19.1191 20.5414Z" fill="black"/>
<path fill-rule="evenodd" clip-rule="evenodd" d="M12.0352 13.4582C12.0352 12.6758 12.6694 12.0415 13.4518 12.0415H13.4646C14.247 12.0415 14.8812 12.6758 14.8812 13.4582C14.8812 14.2406 14.247 14.8748 13.4646 14.8748H13.4518C12.6694 14.8748 12.0352 14.2406 12.0352 13.4582Z" fill="black"/>
</svg>
