<svg width="35" height="35" viewBox="0 0 35 35" fill="none" xmlns="http://www.w3.org/2000/svg">
<mask id="mask0_609_2344" style="mask-type:luminance" maskUnits="userSpaceOnUse" x="0" y="0" width="35" height="35">
<path d="M34.9967 0H0.00292969V35H34.9967V0Z" fill="white"/>
</mask>
<g mask="url(#mask0_609_2344)">
<path d="M23.1126 34.9992C22.1421 34.8746 21.1909 34.63 20.2806 34.2711C18.5019 33.5942 16.941 32.4461 15.765 30.9497C14.5891 29.4533 13.8426 27.6652 13.6054 25.7769C13.1633 22.9552 13.8602 20.0734 15.5428 17.7656C17.2254 15.4577 19.7558 13.9128 22.5775 13.4707C25.3992 13.0285 28.2809 13.7254 30.5888 15.408C32.8966 17.0906 34.4416 19.6211 34.8837 22.4427L35.0013 23.1136V25.3675C34.9858 25.4333 34.9649 25.4983 34.9556 25.5656C34.7335 27.4922 33.9897 29.3216 32.8043 30.8565C31.619 32.3914 30.0372 33.5737 28.2294 34.2758C27.31 34.6387 26.3478 34.8823 25.3665 35.0008L23.1126 34.9992ZM23.4994 26.7572C22.7032 26.7572 21.9055 26.751 21.1093 26.7572C20.9677 26.7385 20.8237 26.7503 20.6869 26.7916C20.5502 26.8329 20.4238 26.9029 20.3162 26.9969C20.2086 27.0909 20.1223 27.2067 20.0629 27.3366C20.0036 27.4666 19.9726 27.6077 19.972 27.7506C19.9715 27.8934 20.0014 28.0348 20.0597 28.1652C20.118 28.2956 20.2035 28.4121 20.3103 28.5069C20.4172 28.6017 20.543 28.6727 20.6795 28.715C20.8159 28.7574 20.9598 28.7703 21.1016 28.7527C22.0688 28.7612 23.036 28.7643 24.0039 28.7527C24.7429 28.782 25.483 28.7658 26.22 28.704C26.929 28.6433 27.6058 28.3809 28.1706 27.9479C28.7353 27.515 29.1644 26.9294 29.4071 26.2604C29.7015 25.5741 29.789 24.8168 29.659 24.0814C29.529 23.346 29.187 22.6646 28.6751 22.1209C28.2985 21.698 27.8343 21.3623 27.3147 21.1371C26.7952 20.9119 26.2328 20.8027 25.6667 20.8171C24.8481 20.8039 24.0279 20.8171 23.2077 20.8124C23.1304 20.8124 23.0313 20.8434 22.9926 20.7583C22.9539 20.6732 23.0468 20.6182 23.0979 20.5648C23.2387 20.4155 23.3927 20.2786 23.5257 20.1238C23.6961 19.9361 23.7873 19.6898 23.7803 19.4364C23.7732 19.183 23.6684 18.9422 23.4878 18.7643C23.308 18.5846 23.0644 18.4833 22.8102 18.4824C22.556 18.4816 22.3117 18.5812 22.1307 18.7597C21.3316 19.5381 20.5429 20.327 19.7645 21.1266C19.6726 21.2172 19.5996 21.3252 19.5498 21.4443C19.5 21.5634 19.4743 21.6912 19.4743 21.8203C19.4743 21.9493 19.5 22.0771 19.5498 22.1962C19.5996 22.3153 19.6726 22.4233 19.7645 22.5139C20.5434 23.3119 21.3329 24.0999 22.133 24.8778C22.3153 25.0549 22.5599 25.1532 22.8141 25.1516C23.0683 25.15 23.3116 25.0486 23.4917 24.8692C23.6758 24.6867 23.7804 24.4389 23.7827 24.1797C23.785 23.9204 23.6849 23.6708 23.5041 23.485C23.3826 23.3504 23.2464 23.2289 23.1172 23.0981C23.0584 23.0347 22.9454 22.9805 22.9826 22.8822C23.0197 22.784 23.1412 22.8211 23.2255 22.8203C24.0767 22.8203 24.9332 22.8141 25.7867 22.8203C26.3021 22.8312 26.7926 23.0438 27.153 23.4124C27.5134 23.781 27.7149 24.2763 27.7142 24.7918C27.7135 25.3073 27.5107 25.802 27.1493 26.1696C26.7878 26.5373 26.2967 26.7485 25.7812 26.758C25.0183 26.7634 24.2562 26.758 23.4933 26.758" fill="#BB0300"/>
<path d="M20.2041 0.00195312H9.39941V9.04559H20.2041V0.00195312Z" fill="#141414"/>
<path d="M29.0809 1.17138V12.0039C29.0809 12.438 29.0638 12.4465 28.6638 12.2995C26.9555 11.6685 25.1318 11.4111 23.3156 11.5447C21.4995 11.6782 19.733 12.1996 18.1354 13.0737C16.5378 13.9478 15.1462 15.1542 14.0543 16.6117C12.9625 18.0692 12.1958 19.7438 11.806 21.5227C11.2723 23.8917 11.4381 26.3647 12.2834 28.6412C12.4382 29.0668 12.4382 29.0753 11.9879 29.0753C8.38371 29.0753 4.77956 29.0838 1.16613 29.0753C1.00718 29.0951 0.845796 29.0781 0.694482 29.0255C0.543169 28.973 0.405981 28.8863 0.293542 28.7722C0.181102 28.6581 0.0964283 28.5197 0.0460759 28.3676C-0.00427653 28.2156 -0.0189563 28.054 0.00317329 27.8953V1.25881C0.00317329 0.372863 0.367612 -0.00086003 1.27136 -0.00086003H9.22632C9.67819 -0.00086003 9.67819 0.00765125 9.67819 0.451012C9.67819 2.78723 9.68103 5.12062 9.68671 7.45117C9.68099 7.63421 9.69265 7.81738 9.72153 7.99821C9.74496 8.14492 9.80228 8.28414 9.88893 8.40482C9.97558 8.5255 10.0892 8.62432 10.2207 8.69342C10.3522 8.76252 10.498 8.8 10.6466 8.80289C10.7951 8.80578 10.9423 8.774 11.0764 8.71007C11.4934 8.52746 11.8927 8.30152 12.3012 8.09106C12.9349 7.76995 13.5864 7.45736 14.2116 7.11845C14.313 7.05802 14.4291 7.02682 14.5471 7.02832C14.6651 7.02982 14.7804 7.06397 14.8801 7.12696C15.8357 7.62217 16.8145 8.09106 17.7639 8.6118C17.9317 8.72735 18.1295 8.79173 18.3332 8.79714C18.5368 8.80255 18.7377 8.74876 18.9114 8.64228C19.0852 8.53581 19.2243 8.38122 19.3119 8.19727C19.3995 8.01332 19.4319 7.8079 19.4051 7.60592C19.388 5.22585 19.3965 2.84656 19.3965 0.466488C19.3965 0.00610372 19.4051 -0.00240754 19.874 -0.00240754H27.89C28.0502 -0.0249682 28.2134 -0.0103074 28.367 0.0404362C28.5206 0.0911798 28.6604 0.17664 28.7755 0.290181C28.8907 0.403721 28.9782 0.542285 29.0311 0.695111C29.0841 0.847937 29.1011 1.01091 29.0809 1.17138Z" fill="#BB0300"/>
</g>
</svg>
