<svg width="35" height="35" viewBox="0 0 35 35" fill="none" xmlns="http://www.w3.org/2000/svg">
<path fill-rule="evenodd" clip-rule="evenodd" d="M21.3182 2.7697L22.7065 6.11366C23.4255 6.44324 24.1123 6.83991 24.7569 7.29783L28.3473 6.8297C28.7105 6.78158 29.0736 6.91866 29.3142 7.19428C30.6486 8.72553 31.6738 10.5003 32.3315 12.4224C32.4511 12.768 32.3884 13.1516 32.1653 13.4418L29.9646 16.3162C30.039 17.1037 30.039 17.897 29.9646 18.6845L32.1653 21.5589C32.3884 21.8491 32.4511 22.2326 32.3315 22.5782C31.6738 24.5003 30.6486 26.2751 29.3142 27.8064C29.0736 28.082 28.7105 28.2191 28.3473 28.1709C28.3473 28.1709 24.7569 27.7028 24.7584 27.7014C24.1138 28.1607 23.4255 28.5574 22.7065 28.8855L21.3182 32.231C21.1782 32.5678 20.8778 32.8143 20.519 32.8843C18.5255 33.2751 16.475 33.2751 14.4815 32.8843C14.1228 32.8143 13.8223 32.5678 13.6823 32.231L12.294 28.887C11.575 28.5574 10.8882 28.1607 10.2436 27.7028L6.65317 28.1709C6.29005 28.2191 5.92692 28.082 5.6863 27.8064C4.35192 26.2751 3.32671 24.5003 2.66901 22.5782C2.54942 22.2326 2.61213 21.8491 2.83526 21.5589L5.03588 18.6845C4.96151 17.897 4.96151 17.1037 5.03588 16.3162L2.83526 13.4418C2.61213 13.1516 2.54942 12.768 2.66901 12.4224C3.32671 10.5003 4.35192 8.72553 5.6863 7.19428C5.92692 6.91866 6.29005 6.78158 6.65317 6.8297C6.65317 6.8297 10.2436 7.29783 10.2421 7.29928C10.8867 6.83991 11.575 6.44324 12.294 6.11512L13.6823 2.7697C13.8223 2.43283 14.1228 2.18637 14.4815 2.11637C16.475 1.72553 18.5255 1.72553 20.519 2.11637C20.8778 2.18637 21.1782 2.43283 21.3182 2.7697ZM17.5003 9.11491C12.8715 9.11491 9.11484 12.8716 9.11484 17.5003C9.11484 22.1291 12.8715 25.8857 17.5003 25.8857C22.129 25.8857 25.8857 22.1291 25.8857 17.5003C25.8857 12.8716 22.129 9.11491 17.5003 9.11491Z" fill="#BB0300"/>
<path fill-rule="evenodd" clip-rule="evenodd" d="M13.4464 18.2735C13.0192 17.8477 13.0192 17.1535 13.4464 16.7277C13.8723 16.3004 14.5664 16.3004 14.9923 16.7277L16.4069 18.1408L20.0089 14.5402C20.4348 14.1129 21.1289 14.1129 21.5548 14.5402C21.9821 14.966 21.9821 15.6602 21.5548 16.086L17.1798 20.461C16.7525 20.8883 16.0612 20.8883 15.6339 20.461L13.4464 18.2735Z" fill="#141414"/>
</svg>
